<svg width="505" height="153" viewBox="0 0 505 153" fill="none" xmlns="http://www.w3.org/2000/svg">
<path d="M19.4219 28.6562H28.5625L32.1836 29.2539L32.8867 25.4922L28.8086 25H19.3516L15.7656 25.5625L13.5156 27.8125L13.0234 30.7656V48.4141L13.5156 51.4375L15.8359 53.6523L19.3516 54.0742H28.1406L31.6914 53.6523L33.9766 51.4375L34.4688 48.4141V39.168H24.2734V42.9297H30.7422V47.8867C30.625 48.2617 30.543 48.6133 30.4961 48.9414C30.4492 49.2695 30.3672 49.6211 30.25 49.9961L27.9297 50.3477H19.4219L17.2773 49.9961L16.7852 47.7461V31.1172L17.1367 29.1836L19.4219 28.6562ZM27.2266 21.8359C29.5938 21.8359 31.7383 22.1875 33.6602 22.8906C35.582 23.5938 37.2109 24.5547 38.5469 25.7734C39.9062 26.9922 40.9492 28.4219 41.6758 30.0625C42.4023 31.6797 42.7656 33.4023 42.7656 35.2305V56.6055C42.7656 58.4336 42.4023 60.168 41.6758 61.8086C40.9492 63.4258 39.9062 64.8438 38.5469 66.0625C37.2109 67.2812 35.582 68.2422 33.6602 68.9453C31.7383 69.6484 29.5938 70 27.2266 70H16.3984C14.0312 70 11.8867 69.6484 9.96484 68.9453C8.04297 68.2422 6.40234 67.2812 5.04297 66.0625C3.70703 64.8438 2.67578 63.4258 1.94922 61.8086C1.22266 60.168 0.859375 58.4336 0.859375 56.6055V35.2305C0.859375 33.4023 1.22266 31.6797 1.94922 30.0625C2.67578 28.4219 3.70703 26.9922 5.04297 25.7734C6.40234 24.5547 8.04297 23.5938 9.96484 22.8906C11.8867 22.1875 14.0312 21.8359 16.3984 21.8359H27.2266ZM68.8516 21.8359C71.2188 21.8359 73.3633 22.1875 75.2852 22.8906C77.207 23.5938 78.8359 24.5547 80.1719 25.7734C81.5312 26.9922 82.5742 28.4219 83.3008 30.0625C84.0273 31.6797 84.3906 33.4023 84.3906 35.2305V56.6055C84.3906 58.4336 84.0273 60.168 83.3008 61.8086C82.5742 63.4258 81.5312 64.8438 80.1719 66.0625C78.8359 67.2812 77.207 68.2422 75.2852 68.9453C73.3633 69.6484 71.2188 70 68.8516 70H58.0234C55.6562 70 53.5117 69.6484 51.5898 68.9453C49.668 68.2422 48.0273 67.2812 46.668 66.0625C45.332 64.8438 44.3008 63.4258 43.5742 61.8086C42.8477 60.168 42.4844 58.4336 42.4844 56.6055V35.2305C42.4844 33.4023 42.8477 31.6797 43.5742 30.0625C44.3008 28.4219 45.332 26.9922 46.668 25.7734C48.0273 24.5547 49.668 23.5938 51.5898 22.8906C53.5117 22.1875 55.6562 21.8359 58.0234 21.8359H68.8516ZM73.457 30.625L72.9297 27.6719L70.7148 25.4219L67.1641 25H59.5352L56.0195 25.4219L53.8047 27.6719L53.2773 30.625V47.3242L53.8047 50.2773L56.0195 52.4922L59.5352 52.9492H68.3945L72.5078 52.4219L71.6289 48.625L68.3242 49.1875H59.7812L57.5312 48.8359L57.0391 46.7266V39.4844H73.457V30.625ZM57.0391 35.793V31.0469L57.3203 29.043L59.7812 28.6562H66.9531L69.3438 29.043L69.6953 31.1172V35.793H57.0391ZM110.477 21.8359C112.844 21.8359 114.988 22.1875 116.91 22.8906C118.832 23.5938 120.461 24.5547 121.797 25.7734C123.156 26.9922 124.199 28.4219 124.926 30.0625C125.652 31.6797 126.016 33.4023 126.016 35.2305V56.6055C126.016 58.4336 125.652 60.168 124.926 61.8086C124.199 63.4258 123.156 64.8438 121.797 66.0625C120.461 67.2812 118.832 68.2422 116.91 68.9453C114.988 69.6484 112.844 70 110.477 70H99.6484C97.2812 70 95.1367 69.6484 93.2148 68.9453C91.293 68.2422 89.6523 67.2812 88.293 66.0625C86.957 64.8438 85.9258 63.4258 85.1992 61.8086C84.4727 60.168 84.1094 58.4336 84.1094 56.6055V35.2305C84.1094 33.4023 84.4727 31.6797 85.1992 30.0625C85.9258 28.4219 86.957 26.9922 88.293 25.7734C89.6523 24.5547 91.293 23.5938 93.2148 22.8906C95.1367 22.1875 97.2812 21.8359 99.6484 21.8359H110.477ZM115.082 30.625L114.555 27.6719L112.34 25.4219L108.789 25H101.16L97.6445 25.4219L95.4297 27.6719L94.9023 30.625V47.3242L95.4297 50.2773L97.6445 52.4922L101.16 52.9492H110.02L114.133 52.4219L113.254 48.625L109.949 49.1875H101.406L99.1562 48.8359L98.6641 46.7266V39.4844H115.082V30.625ZM98.6641 35.793V31.0469L98.9453 29.043L101.406 28.6562H108.578L110.969 29.043L111.32 31.1172V35.793H98.6641ZM148.867 38.8867L160.961 26.9336L158.43 23.9805L143.945 38.3242V25H140.219V54.0742H143.945V43.0703C144.344 42.7422 144.684 42.4492 144.965 42.1914C145.27 41.9102 145.609 41.6055 145.984 41.2773L157.48 54.7422L160.504 52.1406L148.867 38.8867ZM152.102 21.8359C154.469 21.8359 156.613 22.1875 158.535 22.8906C160.457 23.5938 162.086 24.5547 163.422 25.7734C164.781 26.9922 165.824 28.4219 166.551 30.0625C167.277 31.6797 167.641 33.4023 167.641 35.2305V56.6055C167.641 58.4336 167.277 60.168 166.551 61.8086C165.824 63.4258 164.781 64.8438 163.422 66.0625C162.086 67.2812 160.457 68.2422 158.535 68.9453C156.613 69.6484 154.469 70 152.102 70H141.273C138.906 70 136.762 69.6484 134.84 68.9453C132.918 68.2422 131.277 67.2812 129.918 66.0625C128.582 64.8438 127.551 63.4258 126.824 61.8086C126.098 60.168 125.734 58.4336 125.734 56.6055V35.2305C125.734 33.4023 126.098 31.6797 126.824 30.0625C127.551 28.4219 128.582 26.9922 129.918 25.7734C131.277 24.5547 132.918 23.5938 134.84 22.8906C136.762 22.1875 138.906 21.8359 141.273 21.8359H152.102Z" fill="black"/>
<path d="M10 144V135H1V126H19V135H46V81H64V135H55V144H10ZM82 144V135H73V108H82V99H127V108H136V135H127V144H82ZM91 135H118V108H91V135ZM154 144V135H145V99H163V135H190V99H208V144H154ZM244 108H253V117H244V144H226V99H244V108ZM280 99V108H253V99H280ZM289 144V99H343V108H352V144H334V108H307V144H289ZM370 144V135H361V108H370V99H415V108H424V126H379V135H415V144H370ZM379 117H406V108H379V117ZM442 153V144H478V135H442V126H433V99H451V126H478V99H496V144H487V153H442Z" fill="black"/>
</svg>
